<svg width="48" height="48" viewBox="0 0 48 48" fill="none" xmlns="http://www.w3.org/2000/svg">
<path d="M47.12 30.4223C47.1381 30.3566 47.1605 30.2926 47.1781 30.2265L47.176 30.2254C47.7104 28.2376 48 26.1495 48 23.9925C48 21.8409 47.712 19.7576 47.1797 17.7735L47.1819 17.7725C47.1611 17.6946 47.1349 17.6183 47.1136 17.5409C47.0405 17.2784 46.9643 17.017 46.8821 16.7577C46.8389 16.6206 46.7931 16.4846 46.7472 16.348C46.7083 16.2323 46.6731 16.1149 46.6325 15.9996H46.6245C45.7472 13.5173 44.48 11.2195 42.8859 9.18793L31.9984 14.6339V1.35616C29.6688 0.532432 27.1739 0.0613524 24.5771 0H23.4229C20.8267 0.0613524 18.3323 0.532432 16.0027 1.35562V14.6339L5.11413 9.18739C3.52 11.2195 2.25227 13.5173 1.37547 15.9996H1.36747C1.32693 16.1149 1.2912 16.2323 1.25227 16.348C1.2064 16.4841 1.16053 16.6196 1.11733 16.7561C1.0352 17.0154 0.958933 17.2774 0.885867 17.5404C0.864533 17.6177 0.8384 17.6935 0.8176 17.7709L0.819733 17.7719C0.288 19.7571 0 21.8404 0 23.9925C0 26.1495 0.2896 28.2376 0.824 30.2259L0.821867 30.227C0.839467 30.2926 0.861333 30.3561 0.879467 30.4217C0.957333 30.7013 1.0384 30.9798 1.12587 31.2551C1.16587 31.381 1.208 31.5058 1.25013 31.6312C1.2912 31.7544 1.32907 31.8787 1.37227 32.0009H1.38133C2.25973 34.4822 3.528 36.7784 5.1232 38.8089L16.0032 33.3672V46.63C18.5051 47.514 21.1952 48 24 48C26.8053 48 29.496 47.514 31.9984 46.6289V33.3672L42.8773 38.8083C44.4725 36.7778 45.7403 34.4817 46.6187 32.0009H46.6267C46.6699 31.8787 46.7077 31.7539 46.7493 31.6306C46.7915 31.5058 46.8336 31.381 46.8736 31.2551C46.9611 30.9792 47.0427 30.7013 47.12 30.4223Z" fill="#F3F4F5"/>
<path d="M28.7995 0.466278C27.4315 0.188325 26.0192 0.034144 24.5771 0H23.4229C21.9813 0.034144 20.5696 0.188859 19.2021 0.466278V19.2006H0.479467C0.165867 20.7489 0 22.3515 0 23.9925C0 25.6394 0.1664 27.2469 0.482133 28.8004H19.2021V47.5193C20.7525 47.8341 22.3568 48 24 48C25.6437 48 27.2485 47.8341 28.7995 47.5188V28.8004H47.5179C47.8336 27.2469 48 25.6394 48 23.9925C48 22.3515 47.8341 20.7489 47.5205 19.2001H28.7995V0.466278Z" fill="#CC0000"/>
<path d="M45.4624 34.7346C45.9045 33.8527 46.2944 32.9404 46.6272 32.0004H39.9963L45.4624 34.7346Z" fill="#CC0000"/>
<path d="M43.8485 10.4955L32.8432 16.0002H39.9963L45.4688 13.2628C44.9883 12.3025 44.4485 11.3774 43.8485 10.4955Z" fill="#CC0000"/>
<path d="M2.53173 13.2623C2.0896 14.1452 1.70026 15.0591 1.368 16.0002H8.00533L2.53173 13.2623Z" fill="#CC0000"/>
<path d="M4.16 37.5013L15.1584 32.0004H8.00533L2.5376 34.7351C3.0192 35.6954 3.55946 36.6205 4.16 37.5013Z" fill="#CC0000"/>
<path d="M5.11414 9.18739L16.0027 14.6333V12.5047V1.36362C11.6661 2.89689 7.90027 5.63641 5.11414 9.18739Z" fill="#000066"/>
<path d="M31.9984 1.36417V13.2623V14.6334L42.8859 9.18793C40.1003 5.63696 36.3349 2.89744 31.9984 1.36417Z" fill="#000066"/>
<path d="M16.0032 38.8078V33.3672L5.1232 38.8089C7.90827 42.3545 11.6704 45.0903 16.0032 46.6225V38.8078Z" fill="#000066"/>
<path d="M31.9984 33.3672V38.3266V46.6214C36.3307 45.0892 40.0923 42.3534 42.8773 38.8078L31.9984 33.3672Z" fill="#000066"/>
</svg>
