<svg width="48" height="48" viewBox="0 0 48 48" fill="none" xmlns="http://www.w3.org/2000/svg">
<path d="M24 48C37.2548 48 48 37.2548 48 24C48 10.7452 37.2548 0 24 0C10.7452 0 0 10.7452 0 24C0 37.2548 10.7452 48 24 48Z" fill="#229E45"/>
<path d="M24.0896 36.4635L43.2667 24.017L23.9733 11.537L4.73334 24.0469L24.0896 36.4635Z" fill="#F8E509"/>
<path d="M32.4453 24.0005C32.4453 28.4741 28.8133 32.1003 24.3323 32.1003C19.8517 32.1003 16.2192 28.4736 16.2192 24.0005C16.2192 19.5275 19.8517 15.9008 24.3323 15.9008C28.8133 15.9003 32.4453 19.5269 32.4453 24.0005Z" fill="#2B49A3"/>
<path d="M21.6656 28.8517L21.4149 28.7072L21.1547 28.8363L21.2128 28.5467L21.0117 28.3349L21.2992 28.3013L21.4341 28.0416L21.5547 28.3099L21.8384 28.3616L21.6256 28.5605M27.1024 30.2283L26.8517 30.0837L26.5915 30.2128L26.6496 29.9232L26.4485 29.7115L26.736 29.6779L26.8709 29.4181L26.9915 29.6864L27.2752 29.7381L27.0624 29.9371M24.7589 28.0293L24.5424 27.9045L24.3173 28.0155L24.3675 27.7653L24.1936 27.5824L24.4421 27.5531L24.5589 27.3291L24.6629 27.5611L24.9083 27.6053L24.7243 27.7776M30.2496 27.2384L30.0368 27.1157L29.816 27.2251L29.8656 26.9797L29.6949 26.8L29.9387 26.7712L30.0533 26.5509L30.1557 26.7787L30.3963 26.8224L30.216 26.9915M24.6597 25.592L24.4091 25.4475L24.1488 25.5765L24.2069 25.2869L24.0059 25.0752L24.2933 25.0416L24.4283 24.7819L24.5488 25.0501L24.8325 25.1019L24.6197 25.3008M17.9653 23.0789L17.7147 22.9344L17.4544 23.0635L17.5125 22.7744L17.3115 22.5621L17.5989 22.5285L17.7339 22.2688L17.8544 22.5371L18.1381 22.5888L17.9253 22.7877M18.7707 26.4224L18.52 26.2779L18.2597 26.4069L18.3179 26.1179L18.1168 25.9056L18.4043 25.872L18.5392 25.6123L18.6597 25.8805L18.9435 25.9323L18.7307 26.1317M27.1243 21.3147L26.9029 21.1872L26.6731 21.3008L26.7248 21.0453L26.5472 20.8581L26.8011 20.8283L26.9205 20.5989L27.0272 20.8363L27.2779 20.8816L27.0901 21.0576" fill="#FFFFEF"/>
<path d="M21.6656 24.8011L21.4149 24.6565L21.1547 24.7856L21.2128 24.4965L21.0117 24.2843L21.2992 24.2507L21.4341 23.9909L21.5547 24.2592L21.8384 24.3109L21.6256 24.5104" fill="#FFFFEF"/>
<path d="M31.9109 26.9141C32.0347 26.5909 32.1941 26.1029 32.2789 25.6555C27.9701 21.8704 23.1664 19.9312 17.0965 20.3301C16.8789 20.7472 16.7045 21.184 16.5579 21.6565C23.7499 20.9707 29.0213 24.1547 31.9109 26.9141Z" fill="white"/>
</svg>
